<?xml version="1.0" encoding="utf-8" standalone="no"?>
<!DOCTYPE svg PUBLIC "-//W3C//DTD SVG 1.1//EN"
  "http://www.w3.org/Graphics/SVG/1.1/DTD/svg11.dtd">
<svg height="345.6pt" version="1.1" viewBox="0 0 460.8 345.6" width="460.8pt" xmlns="http://www.w3.org/2000/svg" xmlns:xlink="http://www.w3.org/1999/xlink">
 <metadata>
  <rdf:RDF xmlns:cc="http://creativecommons.org/ns#" xmlns:dc="http://purl.org/dc/elements/1.1/" xmlns:rdf="http://www.w3.org/1999/02/22-rdf-syntax-ns#">
   <cc:Work>
    <dc:type rdf:resource="http://purl.org/dc/dcmitype/StillImage"/>
    <dc:date>2023-11-27T15:55:54.159927</dc:date>
    <dc:format>image/svg+xml</dc:format>
    <dc:creator>
     <cc:Agent>
      <dc:title>Matplotlib v3.4.1, https://matplotlib.org/</dc:title>
     </cc:Agent>
    </dc:creator>
   </cc:Work>
  </rdf:RDF>
 </metadata>
 <defs>
  <style type="text/css">*{stroke-linecap:butt;stroke-linejoin:round;}</style>
 </defs>
 <g id="figure_1">
  <g id="patch_1">
   <path d="M 0 345.6 
L 460.8 345.6 
L 460.8 0 
L 0 0 
z
" style="fill:#ffffff;"/>
  </g>
  <g id="axes_1">
   <g id="PathCollection_1">
    <defs>
     <path d="M 0 3 
C 0.795609 3 1.55874 2.683901 2.12132 2.12132 
C 2.683901 1.55874 3 0.795609 3 0 
C 3 -0.795609 2.683901 -1.55874 2.12132 -2.12132 
C 1.55874 -2.683901 0.795609 -3 0 -3 
C -0.795609 -3 -1.55874 -2.683901 -2.12132 -2.12132 
C -2.683901 -1.55874 -3 -0.795609 -3 0 
C -3 0.795609 -2.683901 1.55874 -2.12132 2.12132 
C -1.55874 2.683901 -0.795609 3 0 3 
z
" id="m2e88b45343" style="stroke:#008000;"/>
    </defs>
    <g clip-path="url(#pb7128e467b)">
     <use style="fill:#008000;stroke:#008000;" x="73.832727" xlink:href="#m2e88b45343" y="101.952159"/>
     <use style="fill:#008000;stroke:#008000;" x="73.832727" xlink:href="#m2e88b45343" y="230.976053"/>
     <use style="fill:#008000;stroke:#008000;" x="73.832727" xlink:href="#m2e88b45343" y="139.583929"/>
     <use style="fill:#008000;stroke:#008000;" x="73.832727" xlink:href="#m2e88b45343" y="252.480035"/>
     <use style="fill:#008000;stroke:#008000;" x="73.832727" xlink:href="#m2e88b45343" y="53.568"/>
     <use style="fill:#008000;stroke:#008000;" x="398.487273" xlink:href="#m2e88b45343" y="220.223664"/>
     <use style="fill:#008000;stroke:#008000;" x="73.832727" xlink:href="#m2e88b45343" y="279.360212"/>
     <use style="fill:#008000;stroke:#008000;" x="398.487273" xlink:href="#m2e88b45343" y="241.727646"/>
     <use style="fill:#008000;stroke:#008000;" x="398.487273" xlink:href="#m2e88b45343" y="295.488"/>
     <use style="fill:#008000;stroke:#008000;" x="398.487273" xlink:href="#m2e88b45343" y="214.84747"/>
    </g>
   </g>
  </g>
 </g>
 <defs>
  <clipPath id="pb7128e467b">
   <rect height="266.112" width="357.12" x="57.6" y="41.472"/>
  </clipPath>
 </defs>
</svg>
