<?xml version="1.0" encoding="utf-8" standalone="no"?>
<!DOCTYPE svg PUBLIC "-//W3C//DTD SVG 1.1//EN"
  "http://www.w3.org/Graphics/SVG/1.1/DTD/svg11.dtd">
<svg height="345.6pt" version="1.1" viewBox="0 0 460.8 345.6" width="460.8pt" xmlns="http://www.w3.org/2000/svg" xmlns:xlink="http://www.w3.org/1999/xlink">
 <metadata>
  <rdf:RDF xmlns:cc="http://creativecommons.org/ns#" xmlns:dc="http://purl.org/dc/elements/1.1/" xmlns:rdf="http://www.w3.org/1999/02/22-rdf-syntax-ns#">
   <cc:Work>
    <dc:type rdf:resource="http://purl.org/dc/dcmitype/StillImage"/>
    <dc:date>2023-03-20T16:45:09.180709</dc:date>
    <dc:format>image/svg+xml</dc:format>
    <dc:creator>
     <cc:Agent>
      <dc:title>Matplotlib v3.4.1, https://matplotlib.org/</dc:title>
     </cc:Agent>
    </dc:creator>
   </cc:Work>
  </rdf:RDF>
 </metadata>
 <defs>
  <style type="text/css">*{stroke-linecap:butt;stroke-linejoin:round;}</style>
 </defs>
 <g id="figure_1">
  <g id="patch_1">
   <path d="M 0 345.6 
L 460.8 345.6 
L 460.8 0 
L 0 0 
z
" style="fill:#ffffff;"/>
  </g>
  <g id="axes_1">
   <g id="PathCollection_1">
    <defs>
     <path d="M 0 3 
C 0.795609 3 1.55874 2.683901 2.12132 2.12132 
C 2.683901 1.55874 3 0.795609 3 0 
C 3 -0.795609 2.683901 -1.55874 2.12132 -2.12132 
C 1.55874 -2.683901 0.795609 -3 0 -3 
C -0.795609 -3 -1.55874 -2.683901 -2.12132 -2.12132 
C -2.683901 -1.55874 -3 -0.795609 -3 0 
C -3 0.795609 -2.683901 1.55874 -2.12132 2.12132 
C -1.55874 2.683901 -0.795609 3 0 3 
z
" id="m1886a7be13" style="stroke:#1f77b4;"/>
    </defs>
    <g clip-path="url(#p1825e2c6c0)">
     <use style="fill:#1f77b4;stroke:#1f77b4;" x="258.234762" xlink:href="#m1886a7be13" y="199.971529"/>
     <use style="fill:#1f77b4;stroke:#1f77b4;" x="159.850718" xlink:href="#m1886a7be13" y="250.518034"/>
     <use style="fill:#1f77b4;stroke:#1f77b4;" x="311.536049" xlink:href="#m1886a7be13" y="153.304863"/>
     <use style="fill:#1f77b4;stroke:#1f77b4;" x="223.239594" xlink:href="#m1886a7be13" y="214.159248"/>
     <use style="fill:#1f77b4;stroke:#1f77b4;" x="186.08637" xlink:href="#m1886a7be13" y="232.084562"/>
     <use style="fill:#1f77b4;stroke:#1f77b4;" x="352.157995" xlink:href="#m1886a7be13" y="105.836311"/>
     <use style="fill:#1f77b4;stroke:#1f77b4;" x="285.294212" xlink:href="#m1886a7be13" y="161.047251"/>
     <use style="fill:#1f77b4;stroke:#1f77b4;" x="203.461951" xlink:href="#m1886a7be13" y="244.042125"/>
     <use style="fill:#1f77b4;stroke:#1f77b4;" x="228.211114" xlink:href="#m1886a7be13" y="179.108207"/>
     <use style="fill:#1f77b4;stroke:#1f77b4;" x="212.053599" xlink:href="#m1886a7be13" y="211.048546"/>
     <use style="fill:#1f77b4;stroke:#1f77b4;" x="273.054453" xlink:href="#m1886a7be13" y="196.019419"/>
     <use style="fill:#1f77b4;stroke:#1f77b4;" x="297.5223" xlink:href="#m1886a7be13" y="142.594188"/>
     <use style="fill:#1f77b4;stroke:#1f77b4;" x="230.148257" xlink:href="#m1886a7be13" y="163.469179"/>
     <use style="fill:#1f77b4;stroke:#1f77b4;" x="335.601125" xlink:href="#m1886a7be13" y="127.417962"/>
     <use style="fill:#1f77b4;stroke:#1f77b4;" x="257.738468" xlink:href="#m1886a7be13" y="151.222828"/>
     <use style="fill:#1f77b4;stroke:#1f77b4;" x="99.526346" xlink:href="#m1886a7be13" y="289.041774"/>
     <use style="fill:#1f77b4;stroke:#1f77b4;" x="171.99905" xlink:href="#m1886a7be13" y="205.553435"/>
     <use style="fill:#1f77b4;stroke:#1f77b4;" x="201.294218" xlink:href="#m1886a7be13" y="209.975289"/>
     <use style="fill:#1f77b4;stroke:#1f77b4;" x="258.299156" xlink:href="#m1886a7be13" y="162.574494"/>
     <use style="fill:#1f77b4;stroke:#1f77b4;" x="224.433892" xlink:href="#m1886a7be13" y="126.525534"/>
     <use style="fill:#1f77b4;stroke:#1f77b4;" x="245.521653" xlink:href="#m1886a7be13" y="160.496036"/>
     <use style="fill:#1f77b4;stroke:#1f77b4;" x="197.716785" xlink:href="#m1886a7be13" y="209.848548"/>
     <use style="fill:#1f77b4;stroke:#1f77b4;" x="240.928114" xlink:href="#m1886a7be13" y="178.229534"/>
     <use style="fill:#1f77b4;stroke:#1f77b4;" x="195.962648" xlink:href="#m1886a7be13" y="214.714082"/>
     <use style="fill:#1f77b4;stroke:#1f77b4;" x="288.42725" xlink:href="#m1886a7be13" y="137.862805"/>
     <use style="fill:#1f77b4;stroke:#1f77b4;" x="252.417347" xlink:href="#m1886a7be13" y="177.71503"/>
     <use style="fill:#1f77b4;stroke:#1f77b4;" x="219.663933" xlink:href="#m1886a7be13" y="174.978633"/>
     <use style="fill:#1f77b4;stroke:#1f77b4;" x="262.605642" xlink:href="#m1886a7be13" y="166.727321"/>
     <use style="fill:#1f77b4;stroke:#1f77b4;" x="209.911878" xlink:href="#m1886a7be13" y="176.50068"/>
     <use style="fill:#1f77b4;stroke:#1f77b4;" x="235.981584" xlink:href="#m1886a7be13" y="217.703026"/>
     <use style="fill:#1f77b4;stroke:#1f77b4;" x="272.688442" xlink:href="#m1886a7be13" y="175.480701"/>
     <use style="fill:#1f77b4;stroke:#1f77b4;" x="273.200298" xlink:href="#m1886a7be13" y="162.695656"/>
     <use style="fill:#1f77b4;stroke:#1f77b4;" x="257.340385" xlink:href="#m1886a7be13" y="126.471958"/>
     <use style="fill:#1f77b4;stroke:#1f77b4;" x="206.7853" xlink:href="#m1886a7be13" y="177.086859"/>
     <use style="fill:#1f77b4;stroke:#1f77b4;" x="259.516897" xlink:href="#m1886a7be13" y="199.38305"/>
     <use style="fill:#1f77b4;stroke:#1f77b4;" x="245.970662" xlink:href="#m1886a7be13" y="187.802858"/>
     <use style="fill:#1f77b4;stroke:#1f77b4;" x="113.692126" xlink:href="#m1886a7be13" y="281.76977"/>
     <use style="fill:#1f77b4;stroke:#1f77b4;" x="216.406797" xlink:href="#m1886a7be13" y="210.246744"/>
     <use style="fill:#1f77b4;stroke:#1f77b4;" x="261.366253" xlink:href="#m1886a7be13" y="143.965133"/>
     <use style="fill:#1f77b4;stroke:#1f77b4;" x="90.593801" xlink:href="#m1886a7be13" y="282.899498"/>
     <use style="fill:#1f77b4;stroke:#1f77b4;" x="142.543672" xlink:href="#m1886a7be13" y="217.33068"/>
     <use style="fill:#1f77b4;stroke:#1f77b4;" x="284.511963" xlink:href="#m1886a7be13" y="117.877261"/>
     <use style="fill:#1f77b4;stroke:#1f77b4;" x="202.834475" xlink:href="#m1886a7be13" y="220.661775"/>
     <use style="fill:#1f77b4;stroke:#1f77b4;" x="237.076323" xlink:href="#m1886a7be13" y="178.278851"/>
     <use style="fill:#1f77b4;stroke:#1f77b4;" x="199.68418" xlink:href="#m1886a7be13" y="253.097368"/>
     <use style="fill:#1f77b4;stroke:#1f77b4;" x="224.026906" xlink:href="#m1886a7be13" y="171.247724"/>
     <use style="fill:#1f77b4;stroke:#1f77b4;" x="278.565163" xlink:href="#m1886a7be13" y="123.681219"/>
     <use style="fill:#1f77b4;stroke:#1f77b4;" x="252.100966" xlink:href="#m1886a7be13" y="133.779992"/>
     <use style="fill:#1f77b4;stroke:#1f77b4;" x="188.028377" xlink:href="#m1886a7be13" y="199.553572"/>
     <use style="fill:#1f77b4;stroke:#1f77b4;" x="182.587597" xlink:href="#m1886a7be13" y="191.897596"/>
     <use style="fill:#1f77b4;stroke:#1f77b4;" x="199.719544" xlink:href="#m1886a7be13" y="219.255907"/>
     <use style="fill:#1f77b4;stroke:#1f77b4;" x="130.710524" xlink:href="#m1886a7be13" y="212.608965"/>
     <use style="fill:#1f77b4;stroke:#1f77b4;" x="238.935755" xlink:href="#m1886a7be13" y="208.621208"/>
     <use style="fill:#1f77b4;stroke:#1f77b4;" x="169.640331" xlink:href="#m1886a7be13" y="237.386196"/>
     <use style="fill:#1f77b4;stroke:#1f77b4;" x="305.557027" xlink:href="#m1886a7be13" y="151.956447"/>
     <use style="fill:#1f77b4;stroke:#1f77b4;" x="273.543415" xlink:href="#m1886a7be13" y="178.865286"/>
     <use style="fill:#1f77b4;stroke:#1f77b4;" x="292.32433" xlink:href="#m1886a7be13" y="143.165589"/>
     <use style="fill:#1f77b4;stroke:#1f77b4;" x="212.106621" xlink:href="#m1886a7be13" y="175.097155"/>
     <use style="fill:#1f77b4;stroke:#1f77b4;" x="191.825001" xlink:href="#m1886a7be13" y="235.780166"/>
     <use style="fill:#1f77b4;stroke:#1f77b4;" x="263.582069" xlink:href="#m1886a7be13" y="138.908549"/>
     <use style="fill:#1f77b4;stroke:#1f77b4;" x="303.475884" xlink:href="#m1886a7be13" y="145.389357"/>
     <use style="fill:#1f77b4;stroke:#1f77b4;" x="357.819588" xlink:href="#m1886a7be13" y="93.356919"/>
     <use style="fill:#1f77b4;stroke:#1f77b4;" x="328.441372" xlink:href="#m1886a7be13" y="125.469142"/>
     <use style="fill:#1f77b4;stroke:#1f77b4;" x="335.499921" xlink:href="#m1886a7be13" y="104.033652"/>
     <use style="fill:#1f77b4;stroke:#1f77b4;" x="73.832727" xlink:href="#m1886a7be13" y="261.464902"/>
     <use style="fill:#1f77b4;stroke:#1f77b4;" x="233.207125" xlink:href="#m1886a7be13" y="200.665498"/>
     <use style="fill:#1f77b4;stroke:#1f77b4;" x="250.323884" xlink:href="#m1886a7be13" y="177.099891"/>
     <use style="fill:#1f77b4;stroke:#1f77b4;" x="275.201885" xlink:href="#m1886a7be13" y="144.961945"/>
     <use style="fill:#1f77b4;stroke:#1f77b4;" x="249.845098" xlink:href="#m1886a7be13" y="184.739684"/>
     <use style="fill:#1f77b4;stroke:#1f77b4;" x="258.085375" xlink:href="#m1886a7be13" y="156.95954"/>
     <use style="fill:#1f77b4;stroke:#1f77b4;" x="359.632583" xlink:href="#m1886a7be13" y="59.533132"/>
     <use style="fill:#1f77b4;stroke:#1f77b4;" x="181.329005" xlink:href="#m1886a7be13" y="175.943588"/>
     <use style="fill:#1f77b4;stroke:#1f77b4;" x="303.541624" xlink:href="#m1886a7be13" y="111.110306"/>
     <use style="fill:#1f77b4;stroke:#1f77b4;" x="304.680906" xlink:href="#m1886a7be13" y="116.583527"/>
     <use style="fill:#1f77b4;stroke:#1f77b4;" x="276.162002" xlink:href="#m1886a7be13" y="144.070113"/>
     <use style="fill:#1f77b4;stroke:#1f77b4;" x="189.075707" xlink:href="#m1886a7be13" y="240.837005"/>
     <use style="fill:#1f77b4;stroke:#1f77b4;" x="205.320634" xlink:href="#m1886a7be13" y="232.589696"/>
     <use style="fill:#1f77b4;stroke:#1f77b4;" x="280.651743" xlink:href="#m1886a7be13" y="175.260437"/>
     <use style="fill:#1f77b4;stroke:#1f77b4;" x="308.393385" xlink:href="#m1886a7be13" y="162.745825"/>
     <use style="fill:#1f77b4;stroke:#1f77b4;" x="166.400154" xlink:href="#m1886a7be13" y="256.924227"/>
     <use style="fill:#1f77b4;stroke:#1f77b4;" x="296.581386" xlink:href="#m1886a7be13" y="156.817297"/>
     <use style="fill:#1f77b4;stroke:#1f77b4;" x="219.513174" xlink:href="#m1886a7be13" y="166.069424"/>
     <use style="fill:#1f77b4;stroke:#1f77b4;" x="315.640726" xlink:href="#m1886a7be13" y="146.32071"/>
     <use style="fill:#1f77b4;stroke:#1f77b4;" x="317.339897" xlink:href="#m1886a7be13" y="104.292735"/>
     <use style="fill:#1f77b4;stroke:#1f77b4;" x="365.741739" xlink:href="#m1886a7be13" y="112.990772"/>
     <use style="fill:#1f77b4;stroke:#1f77b4;" x="195.427323" xlink:href="#m1886a7be13" y="218.783693"/>
     <use style="fill:#1f77b4;stroke:#1f77b4;" x="319.336296" xlink:href="#m1886a7be13" y="136.44365"/>
     <use style="fill:#1f77b4;stroke:#1f77b4;" x="283.344749" xlink:href="#m1886a7be13" y="141.427451"/>
     <use style="fill:#1f77b4;stroke:#1f77b4;" x="280.279547" xlink:href="#m1886a7be13" y="153.964762"/>
     <use style="fill:#1f77b4;stroke:#1f77b4;" x="243.343645" xlink:href="#m1886a7be13" y="162.524453"/>
     <use style="fill:#1f77b4;stroke:#1f77b4;" x="170.155779" xlink:href="#m1886a7be13" y="178.291798"/>
     <use style="fill:#1f77b4;stroke:#1f77b4;" x="207.489888" xlink:href="#m1886a7be13" y="199.183143"/>
     <use style="fill:#1f77b4;stroke:#1f77b4;" x="305.673095" xlink:href="#m1886a7be13" y="146.745013"/>
     <use style="fill:#1f77b4;stroke:#1f77b4;" x="240.219187" xlink:href="#m1886a7be13" y="175.333475"/>
     <use style="fill:#1f77b4;stroke:#1f77b4;" x="174.266565" xlink:href="#m1886a7be13" y="193.39128"/>
     <use style="fill:#1f77b4;stroke:#1f77b4;" x="172.578367" xlink:href="#m1886a7be13" y="229.702325"/>
     <use style="fill:#1f77b4;stroke:#1f77b4;" x="334.918334" xlink:href="#m1886a7be13" y="134.435675"/>
     <use style="fill:#1f77b4;stroke:#1f77b4;" x="224.591709" xlink:href="#m1886a7be13" y="162.57871"/>
     <use style="fill:#1f77b4;stroke:#1f77b4;" x="249.261366" xlink:href="#m1886a7be13" y="187.842848"/>
     <use style="fill:#1f77b4;stroke:#1f77b4;" x="240.974202" xlink:href="#m1886a7be13" y="177.443959"/>
     <use style="fill:#1f77b4;stroke:#1f77b4;" x="297.331963" xlink:href="#m1886a7be13" y="128.853045"/>
     <use style="fill:#1f77b4;stroke:#1f77b4;" x="246.719143" xlink:href="#m1886a7be13" y="205.387044"/>
     <use style="fill:#1f77b4;stroke:#1f77b4;" x="241.356848" xlink:href="#m1886a7be13" y="184.00811"/>
     <use style="fill:#1f77b4;stroke:#1f77b4;" x="261.617193" xlink:href="#m1886a7be13" y="154.839219"/>
     <use style="fill:#1f77b4;stroke:#1f77b4;" x="220.021214" xlink:href="#m1886a7be13" y="219.133595"/>
     <use style="fill:#1f77b4;stroke:#1f77b4;" x="250.404887" xlink:href="#m1886a7be13" y="166.719996"/>
     <use style="fill:#1f77b4;stroke:#1f77b4;" x="281.449155" xlink:href="#m1886a7be13" y="161.695182"/>
     <use style="fill:#1f77b4;stroke:#1f77b4;" x="244.943308" xlink:href="#m1886a7be13" y="164.432474"/>
     <use style="fill:#1f77b4;stroke:#1f77b4;" x="242.819144" xlink:href="#m1886a7be13" y="207.814168"/>
     <use style="fill:#1f77b4;stroke:#1f77b4;" x="202.590917" xlink:href="#m1886a7be13" y="211.379879"/>
     <use style="fill:#1f77b4;stroke:#1f77b4;" x="251.25148" xlink:href="#m1886a7be13" y="170.958424"/>
     <use style="fill:#1f77b4;stroke:#1f77b4;" x="188.100476" xlink:href="#m1886a7be13" y="232.691652"/>
     <use style="fill:#1f77b4;stroke:#1f77b4;" x="261.183796" xlink:href="#m1886a7be13" y="177.958164"/>
     <use style="fill:#1f77b4;stroke:#1f77b4;" x="284.293743" xlink:href="#m1886a7be13" y="167.115211"/>
     <use style="fill:#1f77b4;stroke:#1f77b4;" x="255.934701" xlink:href="#m1886a7be13" y="186.223488"/>
     <use style="fill:#1f77b4;stroke:#1f77b4;" x="229.784491" xlink:href="#m1886a7be13" y="153.31074"/>
     <use style="fill:#1f77b4;stroke:#1f77b4;" x="252.024302" xlink:href="#m1886a7be13" y="153.913785"/>
     <use style="fill:#1f77b4;stroke:#1f77b4;" x="175.401607" xlink:href="#m1886a7be13" y="236.827316"/>
     <use style="fill:#1f77b4;stroke:#1f77b4;" x="119.001026" xlink:href="#m1886a7be13" y="295.488"/>
     <use style="fill:#1f77b4;stroke:#1f77b4;" x="204.576393" xlink:href="#m1886a7be13" y="246.021481"/>
     <use style="fill:#1f77b4;stroke:#1f77b4;" x="316.395242" xlink:href="#m1886a7be13" y="123.491916"/>
     <use style="fill:#1f77b4;stroke:#1f77b4;" x="276.688024" xlink:href="#m1886a7be13" y="154.79497"/>
     <use style="fill:#1f77b4;stroke:#1f77b4;" x="259.70893" xlink:href="#m1886a7be13" y="199.544373"/>
     <use style="fill:#1f77b4;stroke:#1f77b4;" x="253.722077" xlink:href="#m1886a7be13" y="174.090335"/>
     <use style="fill:#1f77b4;stroke:#1f77b4;" x="253.406245" xlink:href="#m1886a7be13" y="206.43249"/>
     <use style="fill:#1f77b4;stroke:#1f77b4;" x="354.16008" xlink:href="#m1886a7be13" y="121.100778"/>
     <use style="fill:#1f77b4;stroke:#1f77b4;" x="210.06573" xlink:href="#m1886a7be13" y="175.090043"/>
     <use style="fill:#1f77b4;stroke:#1f77b4;" x="235.146662" xlink:href="#m1886a7be13" y="219.336441"/>
     <use style="fill:#1f77b4;stroke:#1f77b4;" x="282.224421" xlink:href="#m1886a7be13" y="152.308435"/>
     <use style="fill:#1f77b4;stroke:#1f77b4;" x="103.53932" xlink:href="#m1886a7be13" y="237.657566"/>
     <use style="fill:#1f77b4;stroke:#1f77b4;" x="194.597889" xlink:href="#m1886a7be13" y="272.316714"/>
     <use style="fill:#1f77b4;stroke:#1f77b4;" x="204.271858" xlink:href="#m1886a7be13" y="174.04072"/>
     <use style="fill:#1f77b4;stroke:#1f77b4;" x="199.766355" xlink:href="#m1886a7be13" y="237.706585"/>
     <use style="fill:#1f77b4;stroke:#1f77b4;" x="222.696713" xlink:href="#m1886a7be13" y="225.603968"/>
     <use style="fill:#1f77b4;stroke:#1f77b4;" x="398.487273" xlink:href="#m1886a7be13" y="53.568"/>
     <use style="fill:#1f77b4;stroke:#1f77b4;" x="240.645152" xlink:href="#m1886a7be13" y="184.153761"/>
     <use style="fill:#1f77b4;stroke:#1f77b4;" x="316.963412" xlink:href="#m1886a7be13" y="137.104954"/>
     <use style="fill:#1f77b4;stroke:#1f77b4;" x="241.161647" xlink:href="#m1886a7be13" y="170.834792"/>
     <use style="fill:#1f77b4;stroke:#1f77b4;" x="259.897572" xlink:href="#m1886a7be13" y="179.002802"/>
     <use style="fill:#1f77b4;stroke:#1f77b4;" x="282.310163" xlink:href="#m1886a7be13" y="190.872038"/>
     <use style="fill:#1f77b4;stroke:#1f77b4;" x="186.829914" xlink:href="#m1886a7be13" y="223.857993"/>
     <use style="fill:#1f77b4;stroke:#1f77b4;" x="225.879181" xlink:href="#m1886a7be13" y="193.889472"/>
     <use style="fill:#1f77b4;stroke:#1f77b4;" x="212.268552" xlink:href="#m1886a7be13" y="211.008939"/>
     <use style="fill:#1f77b4;stroke:#1f77b4;" x="262.500896" xlink:href="#m1886a7be13" y="152.439095"/>
     <use style="fill:#1f77b4;stroke:#1f77b4;" x="231.218657" xlink:href="#m1886a7be13" y="183.151328"/>
     <use style="fill:#1f77b4;stroke:#1f77b4;" x="308.247939" xlink:href="#m1886a7be13" y="99.924222"/>
     <use style="fill:#1f77b4;stroke:#1f77b4;" x="235.125663" xlink:href="#m1886a7be13" y="169.282848"/>
     <use style="fill:#1f77b4;stroke:#1f77b4;" x="289.592269" xlink:href="#m1886a7be13" y="162.498389"/>
     <use style="fill:#1f77b4;stroke:#1f77b4;" x="271.874819" xlink:href="#m1886a7be13" y="188.326008"/>
     <use style="fill:#1f77b4;stroke:#1f77b4;" x="142.00917" xlink:href="#m1886a7be13" y="285.72878"/>
     <use style="fill:#1f77b4;stroke:#1f77b4;" x="310.079339" xlink:href="#m1886a7be13" y="120.336624"/>
     <use style="fill:#1f77b4;stroke:#1f77b4;" x="209.011142" xlink:href="#m1886a7be13" y="196.883484"/>
     <use style="fill:#1f77b4;stroke:#1f77b4;" x="192.05003" xlink:href="#m1886a7be13" y="169.601149"/>
     <use style="fill:#1f77b4;stroke:#1f77b4;" x="200.539776" xlink:href="#m1886a7be13" y="175.406087"/>
     <use style="fill:#1f77b4;stroke:#1f77b4;" x="208.557843" xlink:href="#m1886a7be13" y="206.846104"/>
     <use style="fill:#1f77b4;stroke:#1f77b4;" x="275.095643" xlink:href="#m1886a7be13" y="143.571622"/>
     <use style="fill:#1f77b4;stroke:#1f77b4;" x="218.113724" xlink:href="#m1886a7be13" y="207.545737"/>
     <use style="fill:#1f77b4;stroke:#1f77b4;" x="199.739396" xlink:href="#m1886a7be13" y="174.211753"/>
     <use style="fill:#1f77b4;stroke:#1f77b4;" x="185.043604" xlink:href="#m1886a7be13" y="272.439111"/>
     <use style="fill:#1f77b4;stroke:#1f77b4;" x="232.303221" xlink:href="#m1886a7be13" y="199.131228"/>
     <use style="fill:#1f77b4;stroke:#1f77b4;" x="223.769357" xlink:href="#m1886a7be13" y="214.88354"/>
     <use style="fill:#1f77b4;stroke:#1f77b4;" x="335.291527" xlink:href="#m1886a7be13" y="124.398313"/>
     <use style="fill:#1f77b4;stroke:#1f77b4;" x="292.347674" xlink:href="#m1886a7be13" y="162.821716"/>
     <use style="fill:#1f77b4;stroke:#1f77b4;" x="247.380436" xlink:href="#m1886a7be13" y="150.640184"/>
     <use style="fill:#1f77b4;stroke:#1f77b4;" x="306.355038" xlink:href="#m1886a7be13" y="128.135185"/>
     <use style="fill:#1f77b4;stroke:#1f77b4;" x="196.334868" xlink:href="#m1886a7be13" y="204.259488"/>
     <use style="fill:#1f77b4;stroke:#1f77b4;" x="264.349604" xlink:href="#m1886a7be13" y="170.402993"/>
     <use style="fill:#1f77b4;stroke:#1f77b4;" x="157.392442" xlink:href="#m1886a7be13" y="291.716632"/>
     <use style="fill:#1f77b4;stroke:#1f77b4;" x="276.036307" xlink:href="#m1886a7be13" y="153.090732"/>
     <use style="fill:#1f77b4;stroke:#1f77b4;" x="194.095509" xlink:href="#m1886a7be13" y="227.704401"/>
     <use style="fill:#1f77b4;stroke:#1f77b4;" x="245.419202" xlink:href="#m1886a7be13" y="158.52869"/>
     <use style="fill:#1f77b4;stroke:#1f77b4;" x="306.267102" xlink:href="#m1886a7be13" y="117.096071"/>
     <use style="fill:#1f77b4;stroke:#1f77b4;" x="236.061839" xlink:href="#m1886a7be13" y="195.265656"/>
     <use style="fill:#1f77b4;stroke:#1f77b4;" x="265.70955" xlink:href="#m1886a7be13" y="172.212339"/>
     <use style="fill:#1f77b4;stroke:#1f77b4;" x="227.237156" xlink:href="#m1886a7be13" y="194.492133"/>
     <use style="fill:#1f77b4;stroke:#1f77b4;" x="329.828601" xlink:href="#m1886a7be13" y="135.879744"/>
     <use style="fill:#1f77b4;stroke:#1f77b4;" x="272.357097" xlink:href="#m1886a7be13" y="159.196766"/>
     <use style="fill:#1f77b4;stroke:#1f77b4;" x="232.870044" xlink:href="#m1886a7be13" y="206.497267"/>
     <use style="fill:#1f77b4;stroke:#1f77b4;" x="276.047281" xlink:href="#m1886a7be13" y="165.29803"/>
     <use style="fill:#1f77b4;stroke:#1f77b4;" x="277.581353" xlink:href="#m1886a7be13" y="131.287793"/>
     <use style="fill:#1f77b4;stroke:#1f77b4;" x="262.251203" xlink:href="#m1886a7be13" y="212.927309"/>
     <use style="fill:#1f77b4;stroke:#1f77b4;" x="158.065556" xlink:href="#m1886a7be13" y="201.513976"/>
     <use style="fill:#1f77b4;stroke:#1f77b4;" x="246.693206" xlink:href="#m1886a7be13" y="177.41172"/>
     <use style="fill:#1f77b4;stroke:#1f77b4;" x="273.313773" xlink:href="#m1886a7be13" y="158.541551"/>
     <use style="fill:#1f77b4;stroke:#1f77b4;" x="253.716591" xlink:href="#m1886a7be13" y="155.821678"/>
     <use style="fill:#1f77b4;stroke:#1f77b4;" x="260.861779" xlink:href="#m1886a7be13" y="160.642155"/>
     <use style="fill:#1f77b4;stroke:#1f77b4;" x="243.796993" xlink:href="#m1886a7be13" y="166.479119"/>
     <use style="fill:#1f77b4;stroke:#1f77b4;" x="192.269347" xlink:href="#m1886a7be13" y="197.532821"/>
     <use style="fill:#1f77b4;stroke:#1f77b4;" x="267.016474" xlink:href="#m1886a7be13" y="172.584599"/>
     <use style="fill:#1f77b4;stroke:#1f77b4;" x="246.908782" xlink:href="#m1886a7be13" y="207.212104"/>
     <use style="fill:#1f77b4;stroke:#1f77b4;" x="156.522156" xlink:href="#m1886a7be13" y="278.631088"/>
     <use style="fill:#1f77b4;stroke:#1f77b4;" x="129.171863" xlink:href="#m1886a7be13" y="278.765324"/>
     <use style="fill:#1f77b4;stroke:#1f77b4;" x="203.640467" xlink:href="#m1886a7be13" y="205.206216"/>
     <use style="fill:#1f77b4;stroke:#1f77b4;" x="206.184834" xlink:href="#m1886a7be13" y="196.560966"/>
     <use style="fill:#1f77b4;stroke:#1f77b4;" x="305.762877" xlink:href="#m1886a7be13" y="172.289082"/>
     <use style="fill:#1f77b4;stroke:#1f77b4;" x="270.928718" xlink:href="#m1886a7be13" y="137.365506"/>
     <use style="fill:#1f77b4;stroke:#1f77b4;" x="271.29423" xlink:href="#m1886a7be13" y="157.50245"/>
     <use style="fill:#1f77b4;stroke:#1f77b4;" x="325.27726" xlink:href="#m1886a7be13" y="121.626312"/>
     <use style="fill:#1f77b4;stroke:#1f77b4;" x="186.516924" xlink:href="#m1886a7be13" y="245.763313"/>
     <use style="fill:#1f77b4;stroke:#1f77b4;" x="271.280962" xlink:href="#m1886a7be13" y="162.722486"/>
    </g>
   </g>
   <g id="line2d_1">
    <path clip-path="url(#p1825e2c6c0)" d="M 258.234762 170.595893 
L 159.850718 236.197258 
L 311.536049 132.907876 
L 223.239594 194.51944 
L 186.08637 219.206353 
L 352.157995 103.171778 
L 285.294212 151.651422 
L 203.461951 207.752207 
L 228.211114 191.160431 
L 212.053599 202.029257 
L 273.054453 160.268721 
L 297.5223 142.962876 
L 230.148257 189.848046 
L 335.601125 115.39757 
L 257.738468 170.939719 
L 99.526346 273.878085 
L 171.99905 228.375129 
L 201.294218 209.189952 
L 258.299156 170.551273 
L 224.433892 193.71371 
L 245.521653 179.362119 
L 195.962648 212.715489 
L 288.42725 149.432842 
L 252.417347 174.617901 
L 209.911878 203.45954 
L 262.605642 167.562155 
L 235.981584 185.884015 
L 273.200298 160.166508 
L 257.340385 171.215411 
L 206.7853 205.543153 
L 259.516897 169.707041 
L 245.970662 179.053971 
L 113.692126 265.20328 
L 216.406797 199.114599 
L 261.366253 168.42342 
L 90.593801 279.293376 
L 142.543672 247.205612 
L 284.511963 152.204538 
L 202.834475 208.168636 
L 237.076323 185.138072 
L 199.68418 210.256192 
L 224.026906 193.988367 
L 278.565163 156.398801 
L 252.100966 174.836123 
L 182.587597 221.49338 
L 199.719544 210.232787 
L 130.710524 254.640645 
L 238.935755 183.869616 
L 169.640331 229.900005 
L 305.557027 137.210641 
L 273.543415 159.925998 
L 292.32433 146.665947 
L 212.106621 201.993818 
L 191.825001 215.44113 
L 263.582069 166.88305 
L 303.475884 138.703867 
L 357.819588 98.95778 
L 328.441372 120.639318 
L 335.499921 115.471852 
L 73.832727 289.340276 
L 233.207125 187.77165 
L 250.323884 176.060867 
L 275.201885 158.762596 
L 249.845098 176.390555 
L 258.085375 170.6994 
L 359.632583 97.604745 
L 181.329005 222.314487 
L 304.680906 137.839541 
L 276.162002 158.088415 
L 189.075707 217.247176 
L 205.320634 206.51745 
L 280.651743 154.929281 
L 308.393385 135.171841 
L 166.400154 231.989913 
L 296.581386 143.634254 
L 219.513174 197.028588 
L 317.339897 128.713011 
L 365.741739 93.032639 
L 195.427323 213.068642 
L 319.336296 127.265931 
L 280.279547 155.191577 
L 243.343645 180.855334 
L 170.155779 229.567028 
L 207.489888 205.074055 
L 305.673095 137.127294 
L 240.219187 182.993022 
L 172.578367 228.000157 
L 334.918334 115.898624 
L 224.591709 193.607183 
L 249.261366 176.792342 
L 240.974202 182.476931 
L 297.331963 143.098727 
L 241.356848 182.215259 
L 261.617193 168.249104 
L 220.021214 196.686938 
L 250.404887 176.005078 
L 281.449155 154.367075 
L 242.819144 181.214548 
L 202.590917 208.330219 
L 251.25148 175.421788 
L 188.100476 217.886853 
L 261.183796 168.550142 
L 284.293743 152.35878 
L 255.934701 172.188244 
L 229.784491 190.094644 
L 252.024302 174.888993 
L 175.401607 226.17022 
L 119.001026 261.92477 
L 204.576393 207.012083 
L 316.395242 129.397001 
L 276.688024 157.718842 
L 253.406245 173.935471 
L 354.16008 101.683546 
L 210.06573 203.356876 
L 235.146662 186.452494 
L 282.224421 153.820159 
L 103.53932 271.431451 
L 194.597889 213.615518 
L 204.271858 207.214397 
L 199.766355 210.201805 
L 222.696713 194.885442 
L 398.487273 68.187886 
L 240.645152 182.701891 
L 316.963412 128.985667 
L 241.161647 182.348757 
L 259.897572 169.442967 
L 282.310163 153.759652 
L 186.829914 218.719487 
L 225.879181 192.737638 
L 212.268552 201.885573 
L 262.500896 167.634975 
L 231.218657 189.122011 
L 308.247939 135.276493 
L 235.125663 186.466786 
L 289.592269 148.606533 
L 271.874819 161.095028 
L 142.00917 247.543055 
L 310.079339 133.957938 
L 209.011142 204.060341 
L 192.05003 215.293128 
L 208.557843 204.362533 
L 275.095643 158.837167 
L 218.113724 197.968989 
L 185.043604 219.888653 
L 232.303221 188.385748 
L 223.769357 194.16213 
L 335.291527 115.624794 
L 292.347674 146.649349 
L 247.380436 178.085768 
L 306.355038 136.637455 
L 196.334868 212.469846 
L 264.349604 166.348874 
L 157.392442 237.770569 
L 276.036307 158.176704 
L 194.095509 213.946577 
L 245.419202 179.432415 
L 306.267102 136.700634 
L 236.061839 185.829352 
L 265.70955 165.401633 
L 227.237156 191.819521 
L 329.828601 119.625837 
L 272.357097 160.757292 
L 232.870044 188.000708 
L 277.581353 157.090869 
L 262.251203 167.808542 
L 158.065556 237.340091 
L 246.693206 178.557875 
L 273.313773 160.086974 
L 243.796993 180.544731 
L 192.269347 215.148857 
L 267.016474 164.490398 
L 246.908782 178.409807 
L 156.522156 238.326788 
L 129.171863 255.601956 
L 206.184834 205.942722 
L 305.762877 137.062818 
L 270.928718 161.757216 
L 271.29423 161.501446 
L 325.27726 122.94713 
L 186.516924 218.924465 
L 271.280962 161.510732 
L 271.280962 161.510732 
" style="fill:none;stroke:#ff0000;stroke-linecap:square;stroke-width:1.5;"/>
   </g>
  </g>
 </g>
 <defs>
  <clipPath id="p1825e2c6c0">
   <rect height="266.112" width="357.12" x="57.6" y="41.472"/>
  </clipPath>
 </defs>
</svg>
