<?xml version="1.0" encoding="utf-8" standalone="no"?>
<!DOCTYPE svg PUBLIC "-//W3C//DTD SVG 1.1//EN"
  "http://www.w3.org/Graphics/SVG/1.1/DTD/svg11.dtd">
<svg height="345.6pt" version="1.1" viewBox="0 0 460.8 345.6" width="460.8pt" xmlns="http://www.w3.org/2000/svg" xmlns:xlink="http://www.w3.org/1999/xlink">
 <metadata>
  <rdf:RDF xmlns:cc="http://creativecommons.org/ns#" xmlns:dc="http://purl.org/dc/elements/1.1/" xmlns:rdf="http://www.w3.org/1999/02/22-rdf-syntax-ns#">
   <cc:Work>
    <dc:type rdf:resource="http://purl.org/dc/dcmitype/StillImage"/>
    <dc:date>2023-03-20T16:45:09.421789</dc:date>
    <dc:format>image/svg+xml</dc:format>
    <dc:creator>
     <cc:Agent>
      <dc:title>Matplotlib v3.4.1, https://matplotlib.org/</dc:title>
     </cc:Agent>
    </dc:creator>
   </cc:Work>
  </rdf:RDF>
 </metadata>
 <defs>
  <style type="text/css">*{stroke-linecap:butt;stroke-linejoin:round;}</style>
 </defs>
 <g id="figure_1">
  <g id="patch_1">
   <path d="M 0 345.6 
L 460.8 345.6 
L 460.8 0 
L 0 0 
z
" style="fill:#ffffff;"/>
  </g>
  <g id="axes_1">
   <g id="PathCollection_1">
    <defs>
     <path d="M 0 3 
C 0.795609 3 1.55874 2.683901 2.12132 2.12132 
C 2.683901 1.55874 3 0.795609 3 0 
C 3 -0.795609 2.683901 -1.55874 2.12132 -2.12132 
C 1.55874 -2.683901 0.795609 -3 0 -3 
C -0.795609 -3 -1.55874 -2.683901 -2.12132 -2.12132 
C -2.683901 -1.55874 -3 -0.795609 -3 0 
C -3 0.795609 -2.683901 1.55874 -2.12132 2.12132 
C -1.55874 2.683901 -0.795609 3 0 3 
z
" id="m42845be7bb" style="stroke:#1f77b4;"/>
    </defs>
    <g clip-path="url(#pee939121a5)">
     <use style="fill:#1f77b4;stroke:#1f77b4;" x="295.402587" xlink:href="#m42845be7bb" y="197.248313"/>
     <use style="fill:#1f77b4;stroke:#1f77b4;" x="322.615169" xlink:href="#m42845be7bb" y="141.007103"/>
     <use style="fill:#1f77b4;stroke:#1f77b4;" x="247.683295" xlink:href="#m42845be7bb" y="162.98239"/>
     <use style="fill:#1f77b4;stroke:#1f77b4;" x="364.96557" xlink:href="#m42845be7bb" y="125.030958"/>
     <use style="fill:#1f77b4;stroke:#1f77b4;" x="278.368498" xlink:href="#m42845be7bb" y="150.090549"/>
     <use style="fill:#1f77b4;stroke:#1f77b4;" x="102.408584" xlink:href="#m42845be7bb" y="295.173764"/>
     <use style="fill:#1f77b4;stroke:#1f77b4;" x="183.011073" xlink:href="#m42845be7bb" y="207.284856"/>
     <use style="fill:#1f77b4;stroke:#1f77b4;" x="215.59249" xlink:href="#m42845be7bb" y="211.939781"/>
     <use style="fill:#1f77b4;stroke:#1f77b4;" x="278.992082" xlink:href="#m42845be7bb" y="162.040547"/>
     <use style="fill:#1f77b4;stroke:#1f77b4;" x="241.327909" xlink:href="#m42845be7bb" y="124.09149"/>
     <use style="fill:#1f77b4;stroke:#1f77b4;" x="264.781235" xlink:href="#m42845be7bb" y="159.852536"/>
     <use style="fill:#1f77b4;stroke:#1f77b4;" x="211.613751" xlink:href="#m42845be7bb" y="211.806359"/>
     <use style="fill:#1f77b4;stroke:#1f77b4;" x="259.672406" xlink:href="#m42845be7bb" y="178.520746"/>
     <use style="fill:#1f77b4;stroke:#1f77b4;" x="209.662839" xlink:href="#m42845be7bb" y="216.92835"/>
     <use style="fill:#1f77b4;stroke:#1f77b4;" x="312.499861" xlink:href="#m42845be7bb" y="136.026335"/>
     <use style="fill:#1f77b4;stroke:#1f77b4;" x="272.450469" xlink:href="#m42845be7bb" y="177.979123"/>
     <use style="fill:#1f77b4;stroke:#1f77b4;" x="236.022868" xlink:href="#m42845be7bb" y="175.098493"/>
     <use style="fill:#1f77b4;stroke:#1f77b4;" x="283.781658" xlink:href="#m42845be7bb" y="166.412264"/>
     <use style="fill:#1f77b4;stroke:#1f77b4;" x="225.176856" xlink:href="#m42845be7bb" y="176.700766"/>
     <use style="fill:#1f77b4;stroke:#1f77b4;" x="254.170987" xlink:href="#m42845be7bb" y="220.074837"/>
     <use style="fill:#1f77b4;stroke:#1f77b4;" x="294.995518" xlink:href="#m42845be7bb" y="175.627025"/>
     <use style="fill:#1f77b4;stroke:#1f77b4;" x="295.564793" xlink:href="#m42845be7bb" y="162.168096"/>
     <use style="fill:#1f77b4;stroke:#1f77b4;" x="277.92576" xlink:href="#m42845be7bb" y="124.035091"/>
     <use style="fill:#1f77b4;stroke:#1f77b4;" x="221.699547" xlink:href="#m42845be7bb" y="177.317842"/>
     <use style="fill:#1f77b4;stroke:#1f77b4;" x="280.346426" xlink:href="#m42845be7bb" y="200.789238"/>
     <use style="fill:#1f77b4;stroke:#1f77b4;" x="265.280612" xlink:href="#m42845be7bb" y="188.598668"/>
     <use style="fill:#1f77b4;stroke:#1f77b4;" x="118.163441" xlink:href="#m42845be7bb" y="287.518462"/>
     <use style="fill:#1f77b4;stroke:#1f77b4;" x="232.400356" xlink:href="#m42845be7bb" y="212.225544"/>
     <use style="fill:#1f77b4;stroke:#1f77b4;" x="282.403238" xlink:href="#m42845be7bb" y="142.45031"/>
     <use style="fill:#1f77b4;stroke:#1f77b4;" x="92.474011" xlink:href="#m42845be7bb" y="288.707736"/>
     <use style="fill:#1f77b4;stroke:#1f77b4;" x="150.251472" xlink:href="#m42845be7bb" y="219.682866"/>
     <use style="fill:#1f77b4;stroke:#1f77b4;" x="308.145369" xlink:href="#m42845be7bb" y="114.987377"/>
     <use style="fill:#1f77b4;stroke:#1f77b4;" x="217.305529" xlink:href="#m42845be7bb" y="223.189538"/>
     <use style="fill:#1f77b4;stroke:#1f77b4;" x="255.388532" xlink:href="#m42845be7bb" y="178.572662"/>
     <use style="fill:#1f77b4;stroke:#1f77b4;" x="213.801843" xlink:href="#m42845be7bb" y="257.334772"/>
     <use style="fill:#1f77b4;stroke:#1f77b4;" x="240.875268" xlink:href="#m42845be7bb" y="171.170932"/>
     <use style="fill:#1f77b4;stroke:#1f77b4;" x="301.531473" xlink:href="#m42845be7bb" y="121.097255"/>
     <use style="fill:#1f77b4;stroke:#1f77b4;" x="272.098597" xlink:href="#m42845be7bb" y="131.728322"/>
     <use style="fill:#1f77b4;stroke:#1f77b4;" x="200.838524" xlink:href="#m42845be7bb" y="200.968748"/>
     <use style="fill:#1f77b4;stroke:#1f77b4;" x="194.787413" xlink:href="#m42845be7bb" y="192.909234"/>
     <use style="fill:#1f77b4;stroke:#1f77b4;" x="213.841174" xlink:href="#m42845be7bb" y="221.709569"/>
     <use style="fill:#1f77b4;stroke:#1f77b4;" x="137.090916" xlink:href="#m42845be7bb" y="214.712274"/>
     <use style="fill:#1f77b4;stroke:#1f77b4;" x="257.45655" xlink:href="#m42845be7bb" y="210.514328"/>
     <use style="fill:#1f77b4;stroke:#1f77b4;" x="180.38776" xlink:href="#m42845be7bb" y="240.795484"/>
     <use style="fill:#1f77b4;stroke:#1f77b4;" x="331.551209" xlink:href="#m42845be7bb" y="150.862835"/>
     <use style="fill:#1f77b4;stroke:#1f77b4;" x="295.946399" xlink:href="#m42845be7bb" y="179.190007"/>
     <use style="fill:#1f77b4;stroke:#1f77b4;" x="316.834105" xlink:href="#m42845be7bb" y="141.608622"/>
     <use style="fill:#1f77b4;stroke:#1f77b4;" x="227.617798" xlink:href="#m42845be7bb" y="175.223262"/>
     <use style="fill:#1f77b4;stroke:#1f77b4;" x="205.061044" xlink:href="#m42845be7bb" y="239.104801"/>
     <use style="fill:#1f77b4;stroke:#1f77b4;" x="284.867618" xlink:href="#m42845be7bb" y="137.127199"/>
     <use style="fill:#1f77b4;stroke:#1f77b4;" x="329.236609" xlink:href="#m42845be7bb" y="143.949602"/>
     <use style="fill:#1f77b4;stroke:#1f77b4;" x="389.676438" xlink:href="#m42845be7bb" y="89.174598"/>
     <use style="fill:#1f77b4;stroke:#1f77b4;" x="357.002656" xlink:href="#m42845be7bb" y="122.979417"/>
     <use style="fill:#1f77b4;stroke:#1f77b4;" x="364.853013" xlink:href="#m42845be7bb" y="100.414088"/>
     <use style="fill:#1f77b4;stroke:#1f77b4;" x="73.832727" xlink:href="#m42845be7bb" y="266.143349"/>
     <use style="fill:#1f77b4;stroke:#1f77b4;" x="251.085298" xlink:href="#m42845be7bb" y="202.139282"/>
     <use style="fill:#1f77b4;stroke:#1f77b4;" x="270.122167" xlink:href="#m42845be7bb" y="177.331561"/>
     <use style="fill:#1f77b4;stroke:#1f77b4;" x="297.790912" xlink:href="#m42845be7bb" y="143.499662"/>
     <use style="fill:#1f77b4;stroke:#1f77b4;" x="269.589671" xlink:href="#m42845be7bb" y="185.374038"/>
     <use style="fill:#1f77b4;stroke:#1f77b4;" x="278.75432" xlink:href="#m42845be7bb" y="156.129636"/>
     <use style="fill:#1f77b4;stroke:#1f77b4;" x="391.692809" xlink:href="#m42845be7bb" y="53.568"/>
     <use style="fill:#1f77b4;stroke:#1f77b4;" x="193.387636" xlink:href="#m42845be7bb" y="176.11431"/>
     <use style="fill:#1f77b4;stroke:#1f77b4;" x="329.309724" xlink:href="#m42845be7bb" y="107.863744"/>
     <use style="fill:#1f77b4;stroke:#1f77b4;" x="330.576807" xlink:href="#m42845be7bb" y="113.625452"/>
     <use style="fill:#1f77b4;stroke:#1f77b4;" x="298.858732" xlink:href="#m42845be7bb" y="142.560822"/>
     <use style="fill:#1f77b4;stroke:#1f77b4;" x="202.003341" xlink:href="#m42845be7bb" y="244.42818"/>
     <use style="fill:#1f77b4;stroke:#1f77b4;" x="220.070579" xlink:href="#m42845be7bb" y="235.746166"/>
     <use style="fill:#1f77b4;stroke:#1f77b4;" x="303.85212" xlink:href="#m42845be7bb" y="175.39515"/>
     <use style="fill:#1f77b4;stroke:#1f77b4;" x="334.705742" xlink:href="#m42845be7bb" y="162.220908"/>
     <use style="fill:#1f77b4;stroke:#1f77b4;" x="176.784109" xlink:href="#m42845be7bb" y="261.363341"/>
     <use style="fill:#1f77b4;stroke:#1f77b4;" x="321.568706" xlink:href="#m42845be7bb" y="155.979895"/>
     <use style="fill:#1f77b4;stroke:#1f77b4;" x="235.855198" xlink:href="#m42845be7bb" y="165.71969"/>
     <use style="fill:#1f77b4;stroke:#1f77b4;" x="342.766068" xlink:href="#m42845be7bb" y="144.930046"/>
     <use style="fill:#1f77b4;stroke:#1f77b4;" x="344.655848" xlink:href="#m42845be7bb" y="100.686827"/>
     <use style="fill:#1f77b4;stroke:#1f77b4;" x="398.487273" xlink:href="#m42845be7bb" y="109.843328"/>
     <use style="fill:#1f77b4;stroke:#1f77b4;" x="209.067464" xlink:href="#m42845be7bb" y="221.212465"/>
     <use style="fill:#1f77b4;stroke:#1f77b4;" x="346.876198" xlink:href="#m42845be7bb" y="134.532378"/>
     <use style="fill:#1f77b4;stroke:#1f77b4;" x="306.84722" xlink:href="#m42845be7bb" y="139.778869"/>
     <use style="fill:#1f77b4;stroke:#1f77b4;" x="303.438172" xlink:href="#m42845be7bb" y="152.977007"/>
     <use style="fill:#1f77b4;stroke:#1f77b4;" x="262.358904" xlink:href="#m42845be7bb" y="161.987868"/>
     <use style="fill:#1f77b4;stroke:#1f77b4;" x="180.961029" xlink:href="#m42845be7bb" y="178.586291"/>
     <use style="fill:#1f77b4;stroke:#1f77b4;" x="222.483174" xlink:href="#m42845be7bb" y="200.578794"/>
     <use style="fill:#1f77b4;stroke:#1f77b4;" x="331.680297" xlink:href="#m42845be7bb" y="145.376714"/>
     <use style="fill:#1f77b4;stroke:#1f77b4;" x="258.883953" xlink:href="#m42845be7bb" y="175.472038"/>
     <use style="fill:#1f77b4;stroke:#1f77b4;" x="185.532952" xlink:href="#m42845be7bb" y="194.481648"/>
     <use style="fill:#1f77b4;stroke:#1f77b4;" x="183.655376" xlink:href="#m42845be7bb" y="232.706605"/>
     <use style="fill:#1f77b4;stroke:#1f77b4;" x="364.206185" xlink:href="#m42845be7bb" y="132.418565"/>
     <use style="fill:#1f77b4;stroke:#1f77b4;" x="241.503429" xlink:href="#m42845be7bb" y="162.044985"/>
     <use style="fill:#1f77b4;stroke:#1f77b4;" x="268.940458" xlink:href="#m42845be7bb" y="188.640766"/>
     <use style="fill:#1f77b4;stroke:#1f77b4;" x="259.723664" xlink:href="#m42845be7bb" y="177.693763"/>
    </g>
   </g>
   <g id="line2d_1">
    <path clip-path="url(#pee939121a5)" d="M 295.402587 159.61324 
L 322.615169 141.395225 
L 247.683295 190.751655 
L 364.96557 112.376984 
L 278.368498 170.846693 
L 102.408584 279.210815 
L 183.011073 231.309454 
L 215.59249 211.11305 
L 278.992082 170.437772 
L 241.327909 194.821074 
L 264.781235 179.713028 
L 211.613751 213.605094 
L 259.672406 183.025191 
L 209.662839 214.824413 
L 312.499861 148.206214 
L 272.450469 174.718747 
L 236.022868 198.203963 
L 283.781658 167.291101 
L 225.176856 205.080594 
L 254.170987 186.578685 
L 294.995518 159.883219 
L 295.564793 159.505639 
L 277.92576 171.136917 
L 221.699547 207.274033 
L 280.346426 169.549043 
L 265.280612 179.388637 
L 118.163441 270.078772 
L 232.400356 200.506637 
L 282.403238 168.197763 
L 92.474011 284.911539 
L 150.251472 251.132469 
L 308.145369 151.124004 
L 217.305529 210.037901 
L 255.388532 185.793424 
L 213.801843 212.23549 
L 240.875268 195.110208 
L 301.531473 155.539341 
L 272.098597 174.948472 
L 200.838524 220.318117 
L 194.787413 224.064976 
L 213.841174 212.210851 
L 137.090916 258.959394 
L 257.45655 184.45811 
L 180.38776 232.914704 
L 331.551209 135.339796 
L 295.946399 159.252452 
L 316.834105 145.29348 
L 227.617798 203.537616 
L 205.061044 217.693719 
L 284.867618 166.576202 
L 329.236609 136.911728 
L 389.676438 95.070673 
L 357.002656 117.895019 
L 364.853013 112.455182 
L 73.832727 295.488 
L 251.085298 188.565814 
L 270.122167 176.237771 
L 297.790912 158.027729 
L 269.589671 176.584836 
L 278.75432 170.593707 
L 391.692809 93.646322 
L 193.387636 224.929363 
L 329.309724 136.86211 
L 330.576807 136.001844 
L 298.858732 157.318012 
L 202.003341 219.59496 
L 220.070579 208.299683 
L 303.85212 153.992364 
L 334.705742 133.193534 
L 176.784109 235.114769 
L 321.568706 142.10199 
L 235.855198 198.310675 
L 342.766068 127.689064 
L 344.655848 126.394266 
L 398.487273 88.833225 
L 209.067464 215.19618 
L 346.876198 124.870913 
L 306.84722 151.992188 
L 303.438172 154.268486 
L 262.358904 181.284948 
L 180.961029 232.564177 
L 222.483174 206.780209 
L 331.680297 135.252056 
L 258.883953 183.535311 
L 185.532952 229.763339 
L 183.655376 230.914717 
L 364.206185 112.904449 
L 241.503429 194.708932 
L 268.940458 177.0078 
L 259.723664 182.992018 
" style="fill:none;stroke:#008000;stroke-linecap:square;stroke-width:1.5;"/>
   </g>
  </g>
 </g>
 <defs>
  <clipPath id="pee939121a5">
   <rect height="266.112" width="357.12" x="57.6" y="41.472"/>
  </clipPath>
 </defs>
</svg>
