<?xml version="1.0" encoding="utf-8" standalone="no"?>
<!DOCTYPE svg PUBLIC "-//W3C//DTD SVG 1.1//EN"
  "http://www.w3.org/Graphics/SVG/1.1/DTD/svg11.dtd">
<svg height="345.6pt" version="1.1" viewBox="0 0 460.8 345.6" width="460.8pt" xmlns="http://www.w3.org/2000/svg" xmlns:xlink="http://www.w3.org/1999/xlink">
 <metadata>
  <rdf:RDF xmlns:cc="http://creativecommons.org/ns#" xmlns:dc="http://purl.org/dc/elements/1.1/" xmlns:rdf="http://www.w3.org/1999/02/22-rdf-syntax-ns#">
   <cc:Work>
    <dc:type rdf:resource="http://purl.org/dc/dcmitype/StillImage"/>
    <dc:date>2023-11-27T15:55:55.611779</dc:date>
    <dc:format>image/svg+xml</dc:format>
    <dc:creator>
     <cc:Agent>
      <dc:title>Matplotlib v3.4.1, https://matplotlib.org/</dc:title>
     </cc:Agent>
    </dc:creator>
   </cc:Work>
  </rdf:RDF>
 </metadata>
 <defs>
  <style type="text/css">*{stroke-linecap:butt;stroke-linejoin:round;}</style>
 </defs>
 <g id="figure_1">
  <g id="patch_1">
   <path d="M 0 345.6 
L 460.8 345.6 
L 460.8 0 
L 0 0 
z
" style="fill:#ffffff;"/>
  </g>
  <g id="axes_1">
   <g id="PathCollection_1">
    <defs>
     <path d="M 0 3 
C 0.795609 3 1.55874 2.683901 2.12132 2.12132 
C 2.683901 1.55874 3 0.795609 3 0 
C 3 -0.795609 2.683901 -1.55874 2.12132 -2.12132 
C 1.55874 -2.683901 0.795609 -3 0 -3 
C -0.795609 -3 -1.55874 -2.683901 -2.12132 -2.12132 
C -2.683901 -1.55874 -3 -0.795609 -3 0 
C -3 0.795609 -2.683901 1.55874 -2.12132 2.12132 
C -1.55874 2.683901 -0.795609 3 0 3 
z
" id="m5a48734c2b" style="stroke:#008000;"/>
    </defs>
    <g clip-path="url(#p820de18f62)">
     <use style="fill:#008000;stroke:#008000;" x="97.624307" xlink:href="#m5a48734c2b" y="125.674879"/>
     <use style="fill:#008000;stroke:#008000;" x="78.478008" xlink:href="#m5a48734c2b" y="68.734112"/>
     <use style="fill:#008000;stroke:#008000;" x="89.666532" xlink:href="#m5a48734c2b" y="113.238984"/>
     <use style="fill:#008000;stroke:#008000;" x="76.595328" xlink:href="#m5a48734c2b" y="62.077114"/>
     <use style="fill:#008000;stroke:#008000;" x="110.202969" xlink:href="#m5a48734c2b" y="167.312483"/>
     <use style="fill:#008000;stroke:#008000;" x="366.511759" xlink:href="#m5a48734c2b" y="274.92389"/>
     <use style="fill:#008000;stroke:#008000;" x="73.832727" xlink:href="#m5a48734c2b" y="53.568"/>
     <use style="fill:#008000;stroke:#008000;" x="391.401827" xlink:href="#m5a48734c2b" y="292.08294"/>
     <use style="fill:#008000;stroke:#008000;" x="398.487273" xlink:href="#m5a48734c2b" y="274.811121"/>
     <use style="fill:#008000;stroke:#008000;" x="386.069529" xlink:href="#m5a48734c2b" y="295.488"/>
    </g>
   </g>
  </g>
 </g>
 <defs>
  <clipPath id="p820de18f62">
   <rect height="266.112" width="357.12" x="57.6" y="41.472"/>
  </clipPath>
 </defs>
</svg>
